<svg xmlns="http://www.w3.org/2000/svg" xmlns:xlink="http://www.w3.org/1999/xlink" width="100" zoomAndPan="magnify" viewBox="0 0 75 74.999997" height="100" preserveAspectRatio="xMidYMid meet" version="1.0"><defs><g/><clipPath id="81c9a322a8"><path d="M 1.351562 2.699219 L 73.648438 2.699219 L 73.648438 72.300781 L 1.351562 72.300781 Z M 1.351562 2.699219 " clip-rule="nonzero"/></clipPath><clipPath id="0b0de30f02"><path d="M 5.101562 2.699219 L 69.898438 2.699219 C 71.972656 2.699219 73.648438 4.378906 73.648438 6.449219 L 73.648438 68.550781 C 73.648438 70.621094 71.972656 72.300781 69.898438 72.300781 L 5.101562 72.300781 C 3.027344 72.300781 1.351562 70.621094 1.351562 68.550781 L 1.351562 6.449219 C 1.351562 4.378906 3.027344 2.699219 5.101562 2.699219 Z M 5.101562 2.699219 " clip-rule="nonzero"/></clipPath><linearGradient x1="2.485291" gradientTransform="matrix(0.271875, 0, 0, 0.271875, 1.348761, 2.699996)" y1="-2.480709" x2="263.447999" gradientUnits="userSpaceOnUse" y2="258.482999" id="5cbfdf2050"><stop stop-opacity="1" stop-color="rgb(5.499268%, 64.698792%, 91.398621%)" offset="0"/><stop stop-opacity="1" stop-color="rgb(5.627441%, 64.784241%, 91.465759%)" offset="0.015625"/><stop stop-opacity="1" stop-color="rgb(5.885315%, 64.956665%, 91.601562%)" offset="0.03125"/><stop stop-opacity="1" stop-color="rgb(6.143188%, 65.129089%, 91.73584%)" offset="0.046875"/><stop stop-opacity="1" stop-color="rgb(6.401062%, 65.299988%, 91.870117%)" offset="0.0625"/><stop stop-opacity="1" stop-color="rgb(6.658936%, 65.472412%, 92.004395%)" offset="0.078125"/><stop stop-opacity="1" stop-color="rgb(6.916809%, 65.644836%, 92.138672%)" offset="0.09375"/><stop stop-opacity="1" stop-color="rgb(7.174683%, 65.815735%, 92.272949%)" offset="0.109375"/><stop stop-opacity="1" stop-color="rgb(7.432556%, 65.988159%, 92.407227%)" offset="0.125"/><stop stop-opacity="1" stop-color="rgb(7.69043%, 66.159058%, 92.541504%)" offset="0.140625"/><stop stop-opacity="1" stop-color="rgb(7.948303%, 66.331482%, 92.675781%)" offset="0.15625"/><stop stop-opacity="1" stop-color="rgb(8.206177%, 66.503906%, 92.810059%)" offset="0.171875"/><stop stop-opacity="1" stop-color="rgb(8.46405%, 66.674805%, 92.944336%)" offset="0.1875"/><stop stop-opacity="1" stop-color="rgb(8.721924%, 66.847229%, 93.078613%)" offset="0.203125"/><stop stop-opacity="1" stop-color="rgb(8.979797%, 67.019653%, 93.212891%)" offset="0.21875"/><stop stop-opacity="1" stop-color="rgb(9.236145%, 67.190552%, 93.347168%)" offset="0.234375"/><stop stop-opacity="1" stop-color="rgb(9.494019%, 67.362976%, 93.481445%)" offset="0.25"/><stop stop-opacity="1" stop-color="rgb(9.751892%, 67.5354%, 93.615723%)" offset="0.265625"/><stop stop-opacity="1" stop-color="rgb(10.009766%, 67.706299%, 93.751526%)" offset="0.28125"/><stop stop-opacity="1" stop-color="rgb(10.267639%, 67.878723%, 93.885803%)" offset="0.296875"/><stop stop-opacity="1" stop-color="rgb(10.525513%, 68.049622%, 94.020081%)" offset="0.3125"/><stop stop-opacity="1" stop-color="rgb(10.783386%, 68.222046%, 94.154358%)" offset="0.328125"/><stop stop-opacity="1" stop-color="rgb(11.04126%, 68.39447%, 94.288635%)" offset="0.34375"/><stop stop-opacity="1" stop-color="rgb(11.299133%, 68.565369%, 94.422913%)" offset="0.359375"/><stop stop-opacity="1" stop-color="rgb(11.557007%, 68.737793%, 94.55719%)" offset="0.375"/><stop stop-opacity="1" stop-color="rgb(11.81488%, 68.910217%, 94.691467%)" offset="0.390625"/><stop stop-opacity="1" stop-color="rgb(12.072754%, 69.081116%, 94.825745%)" offset="0.40625"/><stop stop-opacity="1" stop-color="rgb(12.330627%, 69.25354%, 94.960022%)" offset="0.421875"/><stop stop-opacity="1" stop-color="rgb(12.588501%, 69.425964%, 95.094299%)" offset="0.4375"/><stop stop-opacity="1" stop-color="rgb(12.846375%, 69.596863%, 95.228577%)" offset="0.453125"/><stop stop-opacity="1" stop-color="rgb(13.104248%, 69.769287%, 95.362854%)" offset="0.46875"/><stop stop-opacity="1" stop-color="rgb(13.362122%, 69.941711%, 95.497131%)" offset="0.484375"/><stop stop-opacity="1" stop-color="rgb(13.619995%, 70.11261%, 95.631409%)" offset="0.490492"/><stop stop-opacity="1" stop-color="rgb(13.749695%, 70.199585%, 95.698547%)" offset="0.5"/><stop stop-opacity="1" stop-color="rgb(13.877869%, 70.285034%, 95.765686%)" offset="0.509508"/><stop stop-opacity="1" stop-color="rgb(14.007568%, 70.370483%, 95.834351%)" offset="0.515625"/><stop stop-opacity="1" stop-color="rgb(14.135742%, 70.455933%, 95.901489%)" offset="0.53125"/><stop stop-opacity="1" stop-color="rgb(14.393616%, 70.628357%, 96.035767%)" offset="0.546875"/><stop stop-opacity="1" stop-color="rgb(14.651489%, 70.800781%, 96.170044%)" offset="0.5625"/><stop stop-opacity="1" stop-color="rgb(14.909363%, 70.97168%, 96.304321%)" offset="0.578125"/><stop stop-opacity="1" stop-color="rgb(15.167236%, 71.144104%, 96.438599%)" offset="0.59375"/><stop stop-opacity="1" stop-color="rgb(15.423584%, 71.316528%, 96.572876%)" offset="0.609375"/><stop stop-opacity="1" stop-color="rgb(15.681458%, 71.487427%, 96.707153%)" offset="0.625"/><stop stop-opacity="1" stop-color="rgb(15.939331%, 71.659851%, 96.841431%)" offset="0.640625"/><stop stop-opacity="1" stop-color="rgb(16.197205%, 71.832275%, 96.975708%)" offset="0.65625"/><stop stop-opacity="1" stop-color="rgb(16.455078%, 72.003174%, 97.109985%)" offset="0.671875"/><stop stop-opacity="1" stop-color="rgb(16.712952%, 72.175598%, 97.244263%)" offset="0.6875"/><stop stop-opacity="1" stop-color="rgb(16.970825%, 72.346497%, 97.37854%)" offset="0.703125"/><stop stop-opacity="1" stop-color="rgb(17.228699%, 72.518921%, 97.512817%)" offset="0.71875"/><stop stop-opacity="1" stop-color="rgb(17.486572%, 72.691345%, 97.647095%)" offset="0.734375"/><stop stop-opacity="1" stop-color="rgb(17.744446%, 72.862244%, 97.781372%)" offset="0.75"/><stop stop-opacity="1" stop-color="rgb(18.002319%, 73.034668%, 97.915649%)" offset="0.765625"/><stop stop-opacity="1" stop-color="rgb(18.260193%, 73.207092%, 98.051453%)" offset="0.78125"/><stop stop-opacity="1" stop-color="rgb(18.518066%, 73.377991%, 98.18573%)" offset="0.796875"/><stop stop-opacity="1" stop-color="rgb(18.77594%, 73.550415%, 98.320007%)" offset="0.8125"/><stop stop-opacity="1" stop-color="rgb(19.033813%, 73.722839%, 98.454285%)" offset="0.828125"/><stop stop-opacity="1" stop-color="rgb(19.291687%, 73.893738%, 98.588562%)" offset="0.84375"/><stop stop-opacity="1" stop-color="rgb(19.549561%, 74.066162%, 98.722839%)" offset="0.859375"/><stop stop-opacity="1" stop-color="rgb(19.807434%, 74.238586%, 98.857117%)" offset="0.875"/><stop stop-opacity="1" stop-color="rgb(20.065308%, 74.409485%, 98.991394%)" offset="0.890625"/><stop stop-opacity="1" stop-color="rgb(20.323181%, 74.581909%, 99.125671%)" offset="0.90625"/><stop stop-opacity="1" stop-color="rgb(20.581055%, 74.752808%, 99.259949%)" offset="0.921875"/><stop stop-opacity="1" stop-color="rgb(20.838928%, 74.925232%, 99.394226%)" offset="0.9375"/><stop stop-opacity="1" stop-color="rgb(21.096802%, 75.097656%, 99.528503%)" offset="0.953125"/><stop stop-opacity="1" stop-color="rgb(21.354675%, 75.268555%, 99.662781%)" offset="0.96875"/><stop stop-opacity="1" stop-color="rgb(21.612549%, 75.440979%, 99.797058%)" offset="0.984375"/><stop stop-opacity="1" stop-color="rgb(21.868896%, 75.613403%, 99.931335%)" offset="1"/></linearGradient></defs><g clip-path="url(#81c9a322a8)"><g clip-path="url(#0b0de30f02)"><path fill="url(#5cbfdf2050)" d="M 1.351562 2.699219 L 1.351562 72.300781 L 73.648438 72.300781 L 73.648438 2.699219 Z M 1.351562 2.699219 " fill-rule="nonzero"/></g></g><g fill="#ffffff" fill-opacity="1"><g transform="translate(20.477447, 65.552379)"><g><path d="M 18.625 -55.953125 L 6.03125 -55.953125 C 5.421875 -55.953125 4.890625 -55.734375 4.421875 -55.265625 C 3.96875 -54.8125 3.8125 -54.359375 3.8125 -53.75 L 3.8125 -2.21875 C 3.8125 -1.609375 3.96875 -1.0625 4.421875 -0.609375 C 4.890625 -0.15625 5.421875 0 6.03125 0 L 10.234375 0 C 10.84375 0 11.296875 -0.15625 11.75 -0.609375 C 12.21875 -1.0625 12.4375 -1.609375 12.4375 -2.21875 L 12.4375 -14.421875 C 12.4375 -15.046875 12.59375 -15.5 13.0625 -15.953125 C 13.515625 -16.40625 14.046875 -16.640625 14.65625 -16.640625 L 17.71875 -16.640625 C 18.78125 -16.640625 19.46875 -16.109375 19.84375 -15.1875 L 24.8125 -1.453125 C 25.109375 -0.453125 25.875 0 26.953125 0 L 31.296875 0 C 32.0625 0 32.671875 -0.3125 33.140625 -0.921875 C 33.59375 -1.53125 33.671875 -2.21875 33.4375 -2.984375 L 27.9375 -18.09375 C 27.5625 -19.015625 27.796875 -19.765625 28.546875 -20.453125 C 30.234375 -22.0625 31.609375 -24.046875 32.59375 -26.484375 C 33.59375 -28.859375 34.203125 -31.375 34.4375 -34.046875 C 34.65625 -36.640625 34.5 -39.3125 33.96875 -41.90625 C 33.359375 -44.515625 32.453125 -46.796875 31.140625 -48.9375 C 29.78125 -51 28.09375 -52.671875 26.03125 -53.96875 C 23.890625 -55.265625 21.453125 -55.953125 18.625 -55.953125 Z M 12.4375 -27.484375 L 12.4375 -45.125 C 12.4375 -45.734375 12.59375 -46.1875 13.0625 -46.640625 C 13.515625 -47.109375 14.046875 -47.328125 14.65625 -47.328125 L 18.78125 -47.328125 C 20.390625 -47.328125 21.765625 -46.71875 22.828125 -45.65625 C 23.890625 -44.578125 24.65625 -43.203125 25.1875 -41.609375 C 25.734375 -39.921875 26.03125 -38.171875 26.03125 -36.265625 C 26.03125 -34.359375 25.734375 -32.59375 25.1875 -31 C 24.578125 -29.3125 23.8125 -27.9375 22.75 -26.875 C 21.6875 -25.796875 20.3125 -25.265625 18.78125 -25.265625 L 14.65625 -25.265625 C 14.046875 -25.265625 13.515625 -25.421875 13.0625 -25.875 C 12.59375 -26.34375 12.4375 -26.875 12.4375 -27.484375 Z M 12.4375 -27.484375 "/></g></g></g></svg>